<?xml version="1.0" encoding="UTF-8" standalone="no"?>
<!-- Created with Inkscape (http://www.inkscape.org/) -->

<svg
   width="100mm"
   height="100mm"
   viewBox="0 0 100 100"
   version="1.1"
   id="svg5"
   inkscape:version="1.1.1 (3bf5ae0d25, 2021-09-20)"
   sodipodi:docname="icon.svg"
   xmlns:inkscape="http://www.inkscape.org/namespaces/inkscape"
   xmlns:sodipodi="http://sodipodi.sourceforge.net/DTD/sodipodi-0.dtd"
   xmlns="http://www.w3.org/2000/svg"
   xmlns:svg="http://www.w3.org/2000/svg">
  <sodipodi:namedview
     id="namedview7"
     pagecolor="#ffffff"
     bordercolor="#666666"
     borderopacity="1.0"
     inkscape:pageshadow="2"
     inkscape:pageopacity="0.0"
     inkscape:pagecheckerboard="0"
     inkscape:document-units="mm"
     showgrid="false"
     width="100mm"
     inkscape:zoom="1"
     inkscape:cx="287.5"
     inkscape:cy="137.5"
     inkscape:window-width="1920"
     inkscape:window-height="1027"
     inkscape:window-x="1912"
     inkscape:window-y="-8"
     inkscape:window-maximized="1"
     inkscape:current-layer="layer1" />
  <defs
     id="defs2" />
  <g
     inkscape:label="Ebene 1"
     inkscape:groupmode="layer"
     id="layer1">
    <path
       style="fill:#ffc400;fill-opacity:1;stroke-width:0.584996"
       d="m 41.553202,39.261312 6.330179,38.46443 -1.418241,3.099379 -1.418313,3.099392 -7.631334,2.266417 c -4.197242,1.246487 -11.522994,3.478043 -16.279387,4.95894 -4.756465,1.480905 -8.754881,2.615807 -8.885444,2.522044 -0.130278,-0.09417 1.459358,-5.330543 3.533196,-11.637363 2.073837,-6.306817 3.875813,-11.391369 4.004323,-11.299021 0.128573,0.09235 0.161269,1.239233 0.07833,2.547859 -0.278842,4.267234 0.726039,8.726218 2.289409,10.15851 4.212113,3.859117 19.096013,-0.475475 20.374793,-5.933658 0.556263,-2.374474 -0.713842,-7.041313 -2.748655,-10.099072 -1.530248,-2.299558 -1.545932,-2.389197 -1.008234,-5.76263 0.419365,-2.623404 -0.02154,-9.927591 -1.880164,-31.14737 C 35.558227,15.253073 34.636981,2.3328261 34.846518,1.7875451 35.080039,1.1793117 37.672605,15.661807 41.554704,39.261065 Z M 42.109461,1.4457429 c 0.380945,0.5893664 1.428512,4.2858023 2.328428,8.2137062 5.030616,21.9575439 11.250799,46.1512139 12.477312,48.5310479 1.444463,2.802761 1.587059,4.35425 0.761155,8.281665 -0.819202,3.896141 -0.0066,7.581546 2.062512,9.355671 4.436708,3.803444 17.688758,2.531641 20.175902,-1.936286 0.888693,-1.596369 0.863501,-2.192207 -0.302965,-7.164162 -1.460935,-6.22596 -2.013251,-6.587181 5.437893,3.554084 2.351706,3.200705 5.060835,6.716323 6.020204,7.812394 0.959446,1.096129 1.641408,2.136318 1.515551,2.311556 -0.125971,0.1754 -4.044752,0.389685 -8.708699,0.476585 -4.664002,0.08656 -12.411475,0.297302 -17.216718,0.467452 -4.805205,0.169936 -8.808103,0.229556 -8.895327,0.131908 -0.08745,-0.09768 -1.044661,-1.163161 -2.127621,-2.367722 L 53.667991,76.923528 47.542545,38.648589 C 43.960709,16.269546 41.704383,0.81894998 42.108991,1.4458194 Z"
       id="path854" />
    <path
       id="path17266"
       style="fill:#ff9900;fill-opacity:1;stroke:#ff9900;stroke-width:2.7989;stroke-miterlimit:4;stroke-dasharray:none;stroke-opacity:1"
       d="m 47.905456,87.442587 -15.879693,4.91628 a 8.3854072,7.6782043 0 0 0 7.902225,5.125279 8.3854072,7.6782043 0 0 0 8.385572,-7.678034 8.3854072,7.6782043 0 0 0 -0.408104,-2.363525 z" />
    <path
       id="path18426"
       style="fill:#c83737;fill-opacity:1;stroke:#ff9900;stroke-width:1.99361;stroke-miterlimit:4;stroke-dasharray:none;stroke-opacity:1"
       d="m 65.498985,20.619117 c 0.697031,0.545519 -0.199336,-5.108984 -2.194416,-7.687394 -1.832549,-2.88628 -5.882195,-5.8612592 -5.841778,-4.9958902 0,0 3.031743,0.8827607 5.841778,4.9958902 2.810036,4.11313 2.194416,7.687394 2.194416,7.687394 z"
       sodipodi:nodetypes="ccczc" />
    <path
       id="path18426-6"
       style="fill:none;fill-opacity:1;stroke:#ff9900;stroke-width:2.15184;stroke-miterlimit:4;stroke-dasharray:none;stroke-opacity:1"
       d="M 71.083417,22.373653 C 71.949261,23.206174 70.835805,14.576804 68.357536,10.64188 66.081163,6.2371083 61.050733,1.6969769 61.100941,3.017622 c 0,0 3.765998,1.347187 7.256595,7.624258 3.490597,6.277069 2.725881,11.731773 2.725881,11.731773 z"
       sodipodi:nodetypes="ccczc" />
    <path
       id="path18426-0"
       style="fill:none;fill-opacity:1;stroke:#ff9900;stroke-width:1.99361;stroke-miterlimit:4;stroke-dasharray:none;stroke-opacity:1"
       d="m 13.700886,20.62387 c -0.697031,0.545519 0.199336,-5.108984 2.194416,-7.687394 1.832549,-2.88628 5.882196,-5.8612588 5.841778,-4.9958897 0,0 -3.031743,0.8827604 -5.841778,4.9958897 -2.810035,4.11313 -2.194416,7.687394 -2.194416,7.687394 z"
       sodipodi:nodetypes="ccczc" />
    <path
       id="path18426-6-0"
       style="fill:none;fill-opacity:1;stroke:#ff9900;stroke-width:2.15184;stroke-miterlimit:4;stroke-dasharray:none;stroke-opacity:1"
       d="m 8.116454,22.378406 c -0.8658443,0.832521 0.2476119,-7.796848 2.725881,-11.731773 2.276373,-4.4047713 7.306803,-8.9449027 7.256595,-7.6242577 0,0 -3.765998,1.347187 -7.256595,7.6242577 -3.4905973,6.277071 -2.725881,11.731773 -2.725881,11.731773 z"
       sodipodi:nodetypes="ccczc" />
  </g>
</svg>
